<svg xmlns="http://www.w3.org/2000/svg" width="491" height="83" viewBox="0 0 4906.0 827.0" role="img" aria-label="NextFund">
<g transform="matrix(1 0 0 -1 -16.00 780.00)">
<path fill="#ffffff" d="M709.0 0H513.0L252.0 394V0H56.0V705H252.0L513.0 306V705H709.0ZM1339.0 241H968.0Q971.0 195 993.5 172.5Q1016.0 150 1051.0 150Q1100.0 150 1121.0 194H1330.0Q1317.0 136 1279.5 90.5Q1242.0 45 1185.0 19.0Q1128.0 -7 1059.0 -7Q976.0 -7 911.5 28.0Q847.0 63 810.5 128.0Q774.0 193 774.0 281Q774.0 369 810.0 433.5Q846.0 498 910.5 533.0Q975.0 568 1059.0 568Q1142.0 568 1206.0 534.0Q1270.0 500 1306.0 436.5Q1342.0 373 1342.0 287Q1342.0 264 1339.0 241ZM1142.0 336Q1142.0 372 1118.0 392.5Q1094.0 413 1058.0 413Q1022.0 413 999.0 393.5Q976.0 374 969.0 336ZM1757.0 0 1656.0 141 1576.0 0H1361.0L1548.0 291L1353.0 561H1573.0L1674.0 420L1755.0 561H1970.0L1779.0 275L1977.0 0ZM2351.0 167V0H2266.0Q2051.0 0 2051.0 213V398H1982.0V561H2051.0V697H2248.0V561H2350.0V398H2248.0V210Q2248.0 187 2258.5 177.0Q2269.0 167 2294.0 167Z"/>
<path fill="#14A18C" d="M2904.0 705V549H2622.0V425H2830.0V276H2622.0V0H2426.0V705ZM3546.0 561V0H3349.0V80Q3324.0 42 3280.0 18.5Q3236.0 -5 3179.0 -5Q3081.0 -5 3024.5 59.5Q2968.0 124 2968.0 235V561H3163.0V260Q3163.0 212 3188.5 184.5Q3214.0 157 3256.0 157Q3299.0 157 3324.0 184.5Q3349.0 212 3349.0 260V561ZM4221.0 327V0H4025.0V301Q4025.0 349 4000.0 376.5Q3975.0 404 3933.0 404Q3889.0 404 3864.0 376.5Q3839.0 349 3839.0 301V0H3643.0V561H3839.0V481Q3865.0 519 3909.0 542.5Q3953.0 566 4010.0 566Q4107.0 566 4164.0 501.5Q4221.0 437 4221.0 327ZM4522.0 568Q4576.0 568 4618.5 545.5Q4661.0 523 4685.0 484V740H4882.0V0H4685.0V78Q4662.0 39 4620.0 16.0Q4578.0 -7 4521.0 -7Q4454.0 -7 4399.5 28.0Q4345.0 63 4313.5 128.5Q4282.0 194 4282.0 281Q4282.0 368 4313.5 433.0Q4345.0 498 4400.0 533.0Q4455.0 568 4522.0 568ZM4584.0 397Q4540.0 397 4511.0 366.5Q4482.0 336 4482.0 281Q4482.0 227 4511.0 195.5Q4540.0 164 4584.0 164Q4627.0 164 4656.5 195.0Q4686.0 226 4686.0 281Q4686.0 335 4656.5 366.0Q4627.0 397 4584.0 397Z"/>
</g></svg>